<svg width="161" height="36" viewBox="0 0 161 36" fill="none" xmlns="http://www.w3.org/2000/svg">
<path d="M15.3632 35.9995L0 26.9466L15.3632 17.8281L30.8571 26.9466L15.3632 35.9995Z" fill="#C43AB2"/>
<path d="M15.3632 35.9995L0 26.9466L15.3632 17.8281L30.8571 26.9466L15.3632 35.9995Z" fill="url(#paint0_linear_577_1330)"/>
<path d="M0 27.0857V8.98484L15.4286 0V18.4943L0 27.0857Z" fill="#8C26D9"/>
<path d="M0 27.0857V8.98484L15.4286 0V18.4943L0 27.0857Z" fill="url(#paint1_linear_577_1330)" fill-opacity="0.2"/>
<path d="M15.3632 27.0855L0 18.0326L15.3632 8.91406L30.8571 18.0326L15.3632 27.0855Z" fill="#E889BF"/>
<path d="M15.3632 27.0855L0 18.0326L15.3632 8.91406L30.8571 18.0326L15.3632 27.0855Z" fill="url(#paint2_linear_577_1330)"/>
<path d="M46.8729 23.7277C44.8322 23.7277 43.1865 22.4111 43.0548 19.383H56.7801C56.813 19.0539 56.8459 18.5602 56.8459 18.1323C56.8459 13.0306 52.4354 9.64039 46.2804 9.64039C40.3559 9.64039 35.6162 12.8002 35.6162 18.626C35.6162 24.1885 39.928 27.7432 46.5437 27.7432C52.2379 27.7432 56.3522 25.2088 56.813 21.292L50.2301 20.8971C49.9668 22.444 48.8477 23.7277 46.8729 23.7277ZM46.4121 12.9318C48.354 12.9318 49.7364 14.4788 49.7364 16.684H43.0548C43.1207 14.4459 44.4701 12.9318 46.4121 12.9318Z" fill="#E6F5F5"/>
<path d="M78.2492 10.2987H71.7321L68.2103 14.3142L65.0176 10.2987H56.1966L63.2074 19.2513L56.3941 27.0849H62.977L66.2684 23.1352L69.3623 27.0849H78.2492L71.1397 18.0664H71.1726L78.2492 10.2987Z" fill="#E6F5F5"/>
<path d="M88.6061 27.4141C89.791 27.4141 91.2392 27.2824 92.4242 27.0849L92.5887 22.8061C92.1608 22.8719 91.6013 22.8719 91.5026 22.8719C89.5606 22.8719 88.639 21.5883 88.639 19.1855V13.9192H92.7533V10.2987H86.1704V10.167C88.639 9.9037 89.9556 8.5213 89.9556 6.18439V6.01982H82.3853V6.18439C82.3853 8.85044 81.1017 10.2987 78.7647 10.2987H78.6002V13.9192H81.3979V20.1729C81.3979 25.9659 84.788 27.4141 88.6061 27.4141Z" fill="#E6F5F5"/>
<path d="M104.321 23.7277C102.28 23.7277 100.635 22.4111 100.503 19.383H114.228C114.261 19.0539 114.294 18.5602 114.294 18.1323C114.294 13.0306 109.884 9.64039 103.729 9.64039C97.8041 9.64039 93.0644 12.8002 93.0644 18.626C93.0644 24.1885 97.3762 27.7432 103.992 27.7432C109.686 27.7432 113.8 25.2088 114.261 21.292L107.678 20.8971C107.415 22.444 106.296 23.7277 104.321 23.7277ZM103.86 12.9318C105.802 12.9318 107.185 14.4788 107.185 16.684H100.503C100.569 14.4459 101.918 12.9318 103.86 12.9318Z" fill="#E6F5F5"/>
<path d="M129.573 9.96953C126.479 9.96953 124.175 11.8456 123.517 14.9067H123.352L123.517 10.2987H116.275V27.0849H123.517V17.869C123.517 15.4333 124.57 14.1167 126.479 14.1167C128.388 14.1167 129.441 15.6637 129.441 18.5272V27.0849H136.682V17.5398C136.682 12.8331 133.983 9.96953 129.573 9.96953Z" fill="#E6F5F5"/>
<path d="M153.154 13.5901H153.088C152.627 11.3519 150.125 9.80496 147.13 9.80496C141.864 9.80496 138.178 13.4584 138.178 18.6918C138.178 23.9252 141.864 27.5787 147.13 27.5787C150.125 27.5787 152.627 26.0317 153.088 23.7935H153.318L152.989 27.0849H160.395V3.71582H153.154V13.5901ZM149.5 23.8264C147.196 23.8264 145.616 21.7199 145.616 18.6918C145.616 15.6308 147.196 13.4914 149.5 13.4914C151.837 13.4914 153.45 15.6308 153.45 18.6918C153.45 21.7199 151.837 23.8264 149.5 23.8264Z" fill="#E6F5F5"/>
<path d="M15.3632 17.8286L0 8.94646L15.3632 0L30.8571 8.94646L15.3632 17.8286Z" fill="url(#paint3_linear_577_1330)"/>
<defs>
<linearGradient id="paint0_linear_577_1330" x1="15.4286" y1="17.8281" x2="15.4286" y2="35.9995" gradientUnits="userSpaceOnUse">
<stop stop-color="#820257"/>
<stop offset="1" stop-opacity="0"/>
</linearGradient>
<linearGradient id="paint1_linear_577_1330" x1="15.4286" y1="14.1939" x2="1.21135" y2="23.4924" gradientUnits="userSpaceOnUse">
<stop stop-color="#400A53"/>
<stop offset="1" stop-opacity="0"/>
</linearGradient>
<linearGradient id="paint2_linear_577_1330" x1="15.4286" y1="8.91406" x2="15.4286" y2="27.0855" gradientUnits="userSpaceOnUse">
<stop stop-color="#BA31A8"/>
<stop offset="1" stop-color="#AA329A" stop-opacity="0"/>
</linearGradient>
<linearGradient id="paint3_linear_577_1330" x1="15.4286" y1="0" x2="15.4286" y2="17.8286" gradientUnits="userSpaceOnUse">
<stop stop-color="#C6B38C"/>
<stop offset="1" stop-color="#AA8B4D"/>
</linearGradient>
</defs>
</svg>
