<svg width="18" height="16" viewBox="0 0 18 16" fill="none" xmlns="http://www.w3.org/2000/svg">
<path fill-rule="evenodd" clip-rule="evenodd" d="M3.05346 12.2C3.11027 12.1385 3.17892 12.089 3.25529 12.0547C3.33166 12.0203 3.41417 12.0017 3.49791 12H17.4623C17.5215 12.0008 17.579 12.0187 17.6281 12.0515C17.6773 12.0843 17.716 12.1306 17.7395 12.1848C17.763 12.239 17.7703 12.2989 17.7605 12.3572C17.7508 12.4155 17.7245 12.4697 17.6846 12.5133L14.7246 15.8C14.6678 15.8615 14.5991 15.911 14.5227 15.9453C14.4464 15.9797 14.3639 15.9983 14.2801 16H0.306792C0.247709 15.9992 0.190122 15.9813 0.14096 15.9485C0.0918005 15.9157 0.0531588 15.8694 0.0296838 15.8152C0.0062088 15.761 -0.00109955 15.7011 0.00863712 15.6428C0.0183738 15.5846 0.0447421 15.5303 0.0845705 15.4867L3.05346 12.2ZM17.698 9.47555C17.7378 9.5192 17.7641 9.57343 17.7738 9.63172C17.7836 9.69 17.7763 9.74985 17.7528 9.80408C17.7293 9.85832 17.6906 9.9046 17.6415 9.93738C17.5923 9.97017 17.5348 9.98805 17.4756 9.98888L3.50679 10C3.42307 9.99828 3.34054 9.9797 3.26417 9.94533C3.18781 9.91097 3.11916 9.86153 3.06236 9.8L0.0801255 6.52445C0.0402988 6.4808 0.0139305 6.42657 0.00419212 6.36828C-0.00554455 6.31 0.0017638 6.25015 0.0252388 6.19592C0.0487138 6.14168 0.0873555 6.0954 0.136517 6.06262C0.185677 6.02983 0.243264 6.01195 0.302349 6.01112L14.2712 6C14.355 6.00172 14.4375 6.0203 14.5139 6.05467C14.5902 6.08903 14.6589 6.13847 14.7157 6.2L17.698 9.47555ZM3.05346 0.2C3.11027 0.13847 3.17892 0.0890407 3.25529 0.0546743C3.33166 0.0203082 3.41417 0.0017119 3.49791 0L17.4713 0.0111111C17.5303 0.0119432 17.588 0.0298278 17.6371 0.0626135C17.6863 0.095399 17.725 0.14169 17.7483 0.195917C17.7718 0.250145 17.7791 0.31 17.7695 0.368282C17.7596 0.426565 17.7333 0.480793 17.6935 0.524445L14.7246 3.8C14.6678 3.86153 14.5991 3.91097 14.5227 3.94533C14.4464 3.9797 14.3639 3.99828 14.2801 4H0.306792C0.247709 3.99917 0.190122 3.98128 0.14096 3.9485C0.0918005 3.91572 0.0531588 3.86942 0.0296838 3.8152C0.0062088 3.76097 -0.00109955 3.70112 0.00863712 3.64283C0.0183738 3.58455 0.0447421 3.53032 0.0845705 3.48667L3.05346 0.2Z" fill="url(#paint0_linear_460_585)"/>
<defs>
<linearGradient id="paint0_linear_460_585" x1="0.540126" y1="16.3489" x2="17.238" y2="-0.348886" gradientUnits="userSpaceOnUse">
<stop stop-color="#9945FF"/>
<stop offset="0.14" stop-color="#8A53F4"/>
<stop offset="0.42" stop-color="#6377D6"/>
<stop offset="0.79" stop-color="#24B0A7"/>
<stop offset="0.99" stop-color="#00D18C"/>
<stop offset="1" stop-color="#00D18C"/>
</linearGradient>
</defs>
</svg>
