<svg width="134" height="25" viewBox="0 0 134 25" fill="none" xmlns="http://www.w3.org/2000/svg">
<path d="M15.232 24.64C23.488 24.64 29.088 20.704 29.28 14.784L22.048 14.464C21.728 18.24 19.232 20.48 15.232 20.48C11.296 20.48 8.192 17.568 8.192 12.8C8.192 8 11.296 5.056 15.232 5.056C19.264 5.056 21.728 7.328 21.92 11.136L29.152 10.816C28.992 4.896 23.424 0.959999 15.232 0.959999C6.944 0.959999 0.64 5.344 0.64 12.8C0.64 20.256 6.944 24.64 15.232 24.64ZM35.7415 24.384C39.6775 24.384 42.3015 22.752 42.7495 20H42.8775L43.1975 24H50.0775L49.2775 19.2V14.4C49.2775 9.184 45.3095 7.168 40.0935 7.168C33.8535 7.168 30.7815 10.08 30.4615 13.408L37.2455 13.536C37.3095 12.096 38.3015 11.072 39.8375 11.072C41.2135 11.072 42.1095 11.84 42.1095 12.832C42.1095 13.568 41.6295 14.144 40.2535 14.304L38.0135 14.56C32.7335 15.168 29.7575 16.768 29.7575 20.128C29.7575 23.136 32.2855 24.384 35.7415 24.384ZM38.9735 20.992C37.7575 20.992 36.9255 20.384 36.9255 19.36C36.9255 18.304 37.7575 17.6 39.1015 17.184L39.8375 16.96C40.8935 16.64 41.7255 16.256 42.1095 15.36H42.2375V17.216C42.2375 19.52 40.8295 20.992 38.9735 20.992ZM64.7593 7.36C61.7513 7.36 59.5113 9.184 58.8713 12.16H58.7113L58.8713 7.68H51.8313V24H58.8713V15.04C58.8713 12.672 59.8953 11.392 61.7513 11.392C63.6073 11.392 64.6313 12.896 64.6313 15.68V24H71.6713V14.72C71.6713 10.144 69.0473 7.36 64.7593 7.36ZM86.5563 24L93.4363 7.68H87.3563L83.5163 17.92L79.2283 7.68H71.3563L79.1963 24H86.5563ZM98.6253 24.384C102.561 24.384 105.185 22.752 105.633 20H105.761L106.081 24H112.961L112.161 19.2V14.4C112.161 9.184 108.193 7.168 102.977 7.168C96.7373 7.168 93.6653 10.08 93.3453 13.408L100.129 13.536C100.193 12.096 101.185 11.072 102.721 11.072C104.097 11.072 104.993 11.84 104.993 12.832C104.993 13.568 104.513 14.144 103.137 14.304L100.897 14.56C95.6173 15.168 92.6413 16.768 92.6413 20.128C92.6413 23.136 95.1693 24.384 98.6253 24.384ZM101.857 20.992C100.641 20.992 99.8093 20.384 99.8093 19.36C99.8093 18.304 100.641 17.6 101.985 17.184L102.721 16.96C103.777 16.64 104.609 16.256 104.993 15.36H105.121V17.216C105.121 19.52 103.713 20.992 101.857 20.992ZM123.355 24.64C128.699 24.64 132.955 22.592 132.955 18.88C132.955 15.264 129.723 13.504 125.627 13.12L122.939 12.864C121.723 12.768 120.955 12.256 120.955 11.52C120.955 10.656 121.979 10.112 123.611 10.112C125.531 10.112 126.907 10.88 127.419 12.8L133.115 12.288C132.795 9.344 129.275 7.04 123.643 7.04C118.299 7.04 114.555 9.408 114.555 12.8C114.555 15.488 116.379 17.888 121.403 18.368L124.091 18.624C125.307 18.752 126.075 19.296 126.075 20.064C126.075 20.96 125.051 21.504 123.355 21.504C121.211 21.504 119.579 20.416 119.355 18.624L113.595 19.2C114.171 22.752 118.235 24.64 123.355 24.64Z" fill="#E6F5F5"/>
</svg>
