<svg width="38" height="30" viewBox="0 0 38 30" fill="none" xmlns="http://www.w3.org/2000/svg">
<path d="M4.97419 6.14739C5.01943 5.69882 4.846 5.25025 4.5142 4.94613L1.11331 0.810169V0.194336H11.6855L19.8597 18.2664L27.0461 0.194336H37.1281V0.810169L34.2174 3.62323C33.9685 3.8133 33.8403 4.13262 33.8931 4.44434V25.1242C33.8403 25.4359 33.9685 25.7552 34.2174 25.9453L37.0602 28.7583V29.3742H22.7554V28.7583L25.7038 25.8768C25.9904 25.5879 25.9904 25.4967 25.9904 25.0557V8.34462L17.7935 29.3209H16.685L7.15348 8.34462V22.4023C7.07053 22.9954 7.26659 23.5884 7.68133 24.0141L11.5121 28.6975V29.3133H0.65332V28.7051L4.48404 24.0141C4.89124 23.5884 5.07976 22.9878 4.97419 22.4023V6.14739Z" fill="#FAF1E7"/>
</svg>
