<svg width="365" height="71" viewBox="0 0 365 71" fill="none" xmlns="http://www.w3.org/2000/svg">
<path d="M33.712 59.208C27.76 59.208 22.96 55.368 22.576 46.536H62.608C62.704 45.576 62.8 44.136 62.8 42.888C62.8 28.008 49.936 18.12 31.984 18.12C14.704 18.12 0.88 27.336 0.88 44.328C0.88 60.552 13.456 70.92 32.752 70.92C49.36 70.92 61.36 63.528 62.704 52.104L43.504 50.952C42.736 55.464 39.472 59.208 33.712 59.208ZM32.368 27.72C38.032 27.72 42.064 32.232 42.064 38.664H22.576C22.768 32.136 26.704 27.72 32.368 27.72ZM125.226 20.04H106.218L95.9463 31.752L86.6343 20.04H60.9063L81.3543 46.152L61.4823 69H80.6823L90.2823 57.48L99.3063 69H125.226L104.49 42.696H104.586L125.226 20.04ZM155.434 69.96C158.89 69.96 163.114 69.576 166.57 69L167.05 56.52C165.802 56.712 164.17 56.712 163.882 56.712C158.218 56.712 155.53 52.968 155.53 45.96V30.6H167.53V20.04H148.33V19.656C155.53 18.888 159.37 14.856 159.37 8.04V7.56H137.29V8.04C137.29 15.816 133.546 20.04 126.73 20.04H126.25V30.6H134.41V48.84C134.41 65.736 144.298 69.96 155.434 69.96ZM201.269 59.208C195.317 59.208 190.517 55.368 190.133 46.536H230.165C230.261 45.576 230.357 44.136 230.357 42.888C230.357 28.008 217.493 18.12 199.541 18.12C182.261 18.12 168.437 27.336 168.437 44.328C168.437 60.552 181.013 70.92 200.309 70.92C216.917 70.92 228.917 63.528 230.261 52.104L211.061 50.952C210.293 55.464 207.029 59.208 201.269 59.208ZM199.925 27.72C205.589 27.72 209.621 32.232 209.621 38.664H190.133C190.325 32.136 194.261 27.72 199.925 27.72ZM274.92 19.08C265.896 19.08 259.176 24.552 257.256 33.48H256.776L257.256 20.04H236.136V69H257.256V42.12C257.256 35.016 260.328 31.176 265.896 31.176C271.464 31.176 274.536 35.688 274.536 44.04V69H295.656V41.16C295.656 27.432 287.784 19.08 274.92 19.08ZM343.698 29.64H343.506C342.162 23.112 334.866 18.6 326.13 18.6C310.77 18.6 300.018 29.256 300.018 44.52C300.018 59.784 310.77 70.44 326.13 70.44C334.866 70.44 342.162 65.928 343.506 59.4H344.178L343.218 69H364.818V0.839996H343.698V29.64ZM333.042 59.496C326.322 59.496 321.714 53.352 321.714 44.52C321.714 35.592 326.322 29.352 333.042 29.352C339.858 29.352 344.562 35.592 344.562 44.52C344.562 53.352 339.858 59.496 333.042 59.496Z" fill="#EAD7EA"/>
</svg>
